<?xml version="1.0" encoding="utf-8"?>
<!-- Generator: Adobe Illustrator 18.1.1, SVG Export Plug-In . SVG Version: 6.00 Build 0)  -->
<svg version="1.0" id="Calque_2" xmlns="http://www.w3.org/2000/svg" xmlns:xlink="http://www.w3.org/1999/xlink" x="0px" y="0px"
	 viewBox="0 0 200 53.0005264" enable-background="new 0 0 200 53.0005264" xml:space="preserve">
<g>
	<g>
		<g>
			<path fill="#161616" d="M99.3930664,29.8309212h3.1598282v1.0313625h-7.0537415v-1.0313625h2.5602417 M108.7700958,0.0000029
				h0.8238602l12.13311,29.8309174h2.5580826v1.0313625h-10.5408859v-1.0313625h3.5273819l-4.2285004-10.1568317h-10.0825958
				l0.5107498-1.2552376h9.1271286l-5.3838501-13.4066782"/>
			<path fill="#161616" d="M138.9658203,30.8622837h-10.7858429v-1.0313625h3.3130035V1.9536883h-3.8242493V0.9226129h8.1372833
				v1.0310754l0,0v27.8772335h3.1598053V30.8622837z"/>
			<path fill="#161616" d="M149.1834412,1.9536883h-3.4684753V0.9226129h8.6717224l14.2471161,21.6924839h0.0893555V1.9536883
				h-3.4685059V0.9226129h8.2265167v1.0310754h-3.4243164v29.580452h-1.1555176l-18.294342-28.6841984h-0.0888367v26.9809799
				h3.4232941v1.0313625h-8.2264862v-1.0313625h3.4684753V1.9536883z"/>
			<path fill="#161616" d="M182.4118195,30.8622837v-1.0313625h3.6908417V2.1762779l-8.000061-0.0130472v3.1692564h-1.1570129
				l0.0198059-4.409874H200v4.409874h-1.1981506V2.1391797h-8.3854065v27.6917419h3.6903534v1.0313625H182.4118195z"/>
		</g>
		<g>
			<path fill="#161616" d="M0,30.8000832v-1.811491h4.7066188V2.8390365H0V1.0267508h15.5575304v1.8122857h-5.2833891v26.1495552
				h12.4735718v-4.1555901h1.721571v5.9670811H0z"/>
			<path fill="#161616" d="M30.5097828,30.8000832v-1.811491h5.0510731V2.8390365h-5.0510731V1.0267508h24.4050236v5.9779549
				h-1.6857414V2.8390365H41.1319237v11.8232746h6.6430206V11.24086h1.6857414v8.9156971h-1.6857414V16.228138h-6.6430206
				v12.7604542h13.0845985v-4.1555901h1.7488174v5.9670811H30.5097828z"/>
		</g>
		<path fill="#161616" d="M102.2437057,29.397007"/>
		<g>
			<g>
				<path fill="#161616" d="M92.0277405,18.0606537c1.5271072,1.3427162,2.3418198,2.7517185,2.5347137,4.4820538
					c0.2919312,2.6245193-0.6050186,4.7841835-2.5347137,6.6526699c-1.657341,1.6047096-5.1915817,2.8097992-9.5723724,2.2151814
					c-4.4968033-0.6104717-6.4795532-3.0042267-7.6759186-4.1529903v-2.4544067
					c0.0665131,0.0629311,0.1515427,0.1286907,0.1995239,0.2330685c1.1763,2.5544376,4.5394592,5.1088734,8.8608551,5.5018635
					c3.3537445,0.304987,5.0362167-0.9824753,6.2219009-2.6199341c0.9316025-1.2864151,1.4461441-3.929903-0.6782684-6.4270153
					c-0.8676376-1.0200977-2.8409958-2.3282566-5.7317505-4.098259c-3.6558075-2.2351189-6.0810165-3.9421892-7.2770996-5.1224174
					c-2.2330704-2.3904552-3.1565323-7.3729162,1.3209839-10.3617897c1.9764023-1.3191895,4.0721207-1.7180746,7.0374908-1.7180746
					c3.8127136,0,8.1894455,2.3935199,8.0896835,2.8588991c0.032753,0.2796519-0.0137177,2.5999973-0.0137177,2.5999973
					c-0.7622833-2.2277308-3.6314621-4.4546752-8.3358994-4.4546752c-2.8965912,0-5.5365295,1.4704121-6.004364,4.2794013
					c-0.2096634,1.2577782,0.0431519,3.0566783,1.6461639,4.4538894
					C81.4039612,11.0518312,90.545311,16.7571049,92.0277405,18.0606537z"/>
			</g>
			<polyline fill="#161616" points="92.099556,0.7916161 93.1641922,0.7916161 93.1641922,7.7840648 92.099556,7.7840648 			"/>
			<polyline fill="#161616" points="74.9124832,30.800087 73.8478699,30.800087 73.8478699,22.6127911 74.9124832,22.6127911 			"/>
		</g>
	</g>
	<g>
		<path fill="#161616" d="M35.9436951,52.796936c0.0119896-0.6463051,0.0237503-1.3046532,0.0237503-1.9509163
			c0-0.2993851-0.0117607-1.7480164-0.0117607-2.0836182h-0.2495308c-0.2970314-0.0113144-0.6056709-0.0113144-0.902668-0.0113144
			c-0.7246132,0-0.9857483,0.0113144-1.78162,0.0354462v0.371048c0,0.9818268,0.0592995,3.1250229,0.0712509,3.6159554
			l-0.0712509,0.0716591c-0.5226212,0-0.6413727,0-1.1995411,0.0241318l-0.0714455-0.0723915
			c0.0119896-0.7661896,0.0239449-1.5323792,0.0239449-2.2985649c0-2.0112228,0-4.0224113-0.0832443-6.0457191l0.0712891-0.0595741
			c0.546339,0,0.6770763,0,1.1996975-0.0361786l0.0710602,0.0723953c0,0.4788475-0.0117607,2.8369484-0.0117607,3.3640976
			c0.5938759,0.0113144,2.1616669,0.0113144,2.9338188-0.0241318c-0.023941-1.6160851-0.0357399-1.8913383-0.0832405-3.3166084
			l0.0712509-0.0595741c0.487072,0,0.6413727,0,1.2114983-0.0361786l0.0712509,0.0723953
			c-0.0119514,0.4064522-0.0119514,1.1613274-0.0119514,2.0949287c0,2.0828476,0.0119514,4.1656952,0.0832405,6.2493134
			l-0.0712891,0.0716591c-0.5345764,0-0.6531334-0.012085-1.2114601,0.0241318L35.9436951,52.796936z"/>
		<path fill="#161616" d="M49.8613968,45.2188416c0.4751205,0.539196,0.9977036,1.5685539,0.9977036,3.4478073
			c0,2.6220398-1.0927048,4.3217926-3.2306595,4.3217926c-2.2804527,0-3.289917-1.9154282-3.289917-4.4175873
			c0-1.5557365,0.4038315-2.645401,0.9384041-3.3037491c0.7956772-0.945652,1.817131-1.0293579,2.3515129-1.0293579
			C48.0800056,44.2377472,49.0657196,44.2973213,49.8613968,45.2188416z M47.6048851,45.1713486
			c-0.2970352,0-0.582077,0.0716248-0.8316078,0.215641c-1.0212631,0.6342163-1.1520004,2.4418488-1.1520004,3.1725502
			c0,0.8853416,0.1662827,1.9509163,0.5938683,2.6333961c0.344532,0.5625572,0.7956734,0.8498573,1.4372406,0.8498573
			c1.5321274,0,1.9239693-1.8671684,1.9239693-3.4115906C49.576355,46.8711014,49.0657196,45.1713486,47.6048851,45.1713486z"/>
		<path fill="#161616" d="M60.2308731,52.8451958c-0.5226212-0.012085-0.6415672-0.012085-1.187748,0.0241318l-0.0594902-0.0723915
			c0.0119896-0.5625954,0.0237503-1.0173111,0.0237503-2.0828857v-3.8670807c0-0.6817055,0-0.9577332-0.0117607-1.5202904
			c-0.9502029,0-0.9977036,0.0120468-1.9243507,0.0482635l-0.0592613-0.0716629
			c0.0237503-0.3476105,0.0237503-0.4554482,0.0357018-0.8506279l0.0710983-0.0716209h2.054863
			c2.2210007-0.012085,2.4704971-0.012085,2.9811287-0.0354462l0.0594902,0.0716248
			c-0.0355492,0.3951759-0.0355492,0.4788857-0.0475006,0.8619423L62.083744,45.350811
			c-0.7483673-0.0362167-1.1996994-0.0362167-1.8528709-0.0362167c0,1.269207,0,5.2795677,0.0830536,7.4589424
			L60.2308731,52.8451958z"/>
		<path fill="#161616" d="M70.1106339,48.906456c0.0119476,1.5798683,0.0119476,1.6040001,0.035553,2.9689217h0.7365646
			c0.9737625-0.0120468,1.4845886-0.0241318,2.1379471-0.0595779l0.0710602,0.0716629
			c-0.0355072,0.4185371-0.0355072,0.4547157-0.0592957,0.8860741l-0.0712509,0.0716591h-1.9003754
			c-1.1282578,0-1.6273193,0.0120468-2.1379547,0.0241318l-0.0594864-0.0603485
			c0.0119858-0.4426689,0.023941-1.1130638,0.023941-2.2502594c0-1.0301285-0.023941-3.0526657-0.0357056-4.2139969
			c-0.0237503-1.0301285-0.0357361-1.3174286-0.0592957-1.8920708l0.0592957-0.0716209
			c2.4112015,0.0120468,3.1356201,0.0120468,4.0620804-0.0241318l0.0712509,0.0723953
			c-0.0357056,0.3589592-0.0357056,0.502243-0.0475006,0.8498573l-0.0712509,0.0716591
			c-1.1757965-0.0241318-1.3065414-0.0241318-2.1735001-0.0241318h-0.6058273c0,1.1734123,0,1.4968948,0.0117569,2.6695747h0.807663
			c1.0927505-0.0113144,1.4135361-0.0233994,1.8293152-0.0354462l0.0710983,0.0716209
			c-0.0355453,0.3830948-0.0355453,0.4788513-0.0475006,0.8144531l-0.083046,0.0716209
			c-0.5821152-0.0120468-0.9857559-0.0120468-1.7698669-0.0120468H70.1106339z"/>
		<path fill="#161616" d="M81.5226746,44.4292946c-0.0119476,0.8378105-0.023941,1.675621-0.023941,2.5021172
			c0,0.5384636,0.0119934,3.1605072,0.0119934,3.7585068c0,0.6703949,0,0.8023643,0.0237503,1.1854591h0.5463257
			c0.700676-0.0120468,1.4133377-0.0120468,2.1024094-0.0716209l0.0710907,0.0716209
			c-0.0355453,0.3830948-0.0355453,0.4788857-0.0475006,0.9094696l-0.0710907,0.0723953
			c-0.2614899-0.0120468-0.47509-0.0120468-0.9502029-0.0120468h-1.6392746c-0.558136,0-0.7361908,0-1.2352524,0.0120468
			l-0.0710602-0.0603065c0.0117645-0.7895889,0.0117645-1.4841156,0.0117645-2.0949326
			c0-0.9931793-0.0237503-4.8843918-0.0832062-6.2493515l0.0714417-0.0716209c0.5461807,0,0.6769257,0,1.2113113-0.0241318
			L81.5226746,44.4292946z"/>
		<path fill="#161616" d="M103.9317322,52.796936c-0.0119858-0.0837097-0.0359268-0.1553688-0.0478821-0.2269936
			c-0.1900406-0.8385811-0.3086395-1.4011383-0.5461731-2.3226967h-2.4705048l-0.106987,0.4072266
			c-0.3325882,1.3166962-0.3800888,1.5082436-0.4986801,2.1190643l-0.0834351,0.0716591
			c-0.4631348-0.012085-0.5816956-0.012085-1.1043167,0.0120468l-0.0594864-0.0723953
			c0.4036407-1.328743,0.5226212-1.7714119,0.7601624-2.6213074l0.8551636-3.0292702
			c0.1185989-0.4064522,0.2375793-0.8015938,0.3445358-1.2088165c0.0591049-0.2156792,0.3325806-1.2329903,0.4036789-1.4728012
			l0.0714417-0.0595741c0.6176224,0,0.7956772,0,1.4608383-0.0241318l0.083046,0.0723953
			c0.2969971,1.1726379,0.4515305,1.699791,0.6890717,2.5496445l0.6886826,2.4901123
			c0.4395676,1.6040001,0.5226212,1.915432,0.6060562,2.1906853c0.0471115,0.1553307,0.2730865,0.9102058,0.3205872,1.0897064
			l-0.0594864,0.0595741c-0.5106354,0.0241318-0.700676,0.0241318-1.2232971,0.0361786L103.9317322,52.796936z
			 M101.0691681,49.3257294c0.4156265,0.0113144,1.4608383,0.0113144,2.0309601-0.0120468l-0.4870758-1.880024
			c-0.28508-1.1251106-0.3205872-1.3046112-0.5226212-2.0708008c-0.2136002,0.8619804-0.3561401,1.4245377-0.5341949,2.0949326
			L101.0691681,49.3257294z"/>
		<path fill="#161616" d="M120.5795364,44.381031c0.2730942,0,1.5794373-0.0354462,1.8764725-0.0354462
			c0.4631271,0,0.91465,0.0354462,1.3182907,0.1915474c0.867157,0.3468781,1.306694,1.1726418,1.306694,2.3339691
			c0,0.8498955-0.2375412,1.4486313-0.5585175,1.855854c-0.6886826,0.8861122-1.6744385,0.8974266-2.707695,0.8861122
			c0.0116119,2.0707626,0.0235977,2.5255165,0.0591125,3.1604691l-0.0591125,0.0716591
			c-0.546524-0.012085-0.653511,0-1.1880875,0.0241318l-0.0710983-0.0723915
			c0.023941-0.5384636,0.035553-1.2329903,0.035553-2.4538956c0-1.0173111-0.0116119-3.1129761-0.0235596-3.9983177
			c-0.0119934-0.9939117-0.023941-1.3174286-0.0475006-1.8920708L120.5795364,44.381031z M122.8600311,48.594986
			c0.9142685-0.2752533,0.9857178-1.328743,0.9857178-1.7714119c0-0.4667664-0.0950012-0.9697838-0.4515305-1.2812157
			c-0.3205872-0.2752533-0.7601547-0.2752533-0.9621582-0.2752533c-0.2136002,0-0.4866867,0.0120468-0.6412201,0.0241318
			c0,1.4840736,0,1.9154282,0.023941,3.387455C122.4320602,48.6786919,122.6699905,48.6553345,122.8600311,48.594986z"/>
		<path fill="#161616" d="M135.4863586,52.796936c-0.0119781-0.0837097-0.0359192-0.1553688-0.0478821-0.2269936
			c-0.190033-0.8385811-0.3086395-1.4011383-0.5461731-2.3226967h-2.4705048l-0.1069946,0.4072266
			c-0.3325806,1.3166962-0.3800812,1.5082436-0.4986725,2.1190643l-0.0833893,0.0716591
			c-0.4631348-0.012085-0.5817413-0.012085-1.1043243,0.0120468l-0.059494-0.0723953
			c0.4036407-1.328743,0.5225983-1.7714119,0.7601776-2.6213074l0.8551636-3.0292702
			c0.1185913-0.4064522,0.2375336-0.8015938,0.3445282-1.2088165c0.0591125-0.2156792,0.3325806-1.2329903,0.4036407-1.4728012
			l0.0714417-0.0595741c0.61763,0,0.7957153,0,1.4608459-0.0241318l0.0830383,0.0723953
			c0.2970428,1.1726379,0.4515228,1.699791,0.6890717,2.5496445l0.6887207,2.4901123
			c0.4395294,1.6040001,0.522583,1.915432,0.6060181,2.1906853c0.0471497,0.1553307,0.2730865,0.9102058,0.3205872,1.0897064
			l-0.0594482,0.0595741c-0.5106659,0.0241318-0.7006683,0.0241318-1.2232971,0.0361786L135.4863586,52.796936z
			 M132.6237946,49.3257294c0.4156342,0.0113144,1.4608459,0.0113144,2.0309601-0.0120468l-0.4870758-1.880024
			c-0.2850342-1.1251106-0.3205872-1.3046112-0.522583-2.0708008c-0.2136383,0.8619804-0.3561401,1.4245377-0.5342255,2.0949326
			L132.6237946,49.3257294z"/>
		<path fill="#161616" d="M143.4414215,44.381031c0.2970428,0,0.582077,0,0.867157-0.012085
			c0.3445435,0,0.9026642-0.0233612,1.2472076-0.0233612c0.6767273,0,2.4229889,0,2.4229889,2.2864799
			c0,1.8430367-1.1761322,2.214817-1.5083313,2.3105698l0.6056671,1.1967735
			c0.9617767,1.8438072,1.0096588,1.9396019,1.4132996,2.6099968l-0.0475006,0.0837059
			c-0.558136,0-0.7956696,0.012085-1.3063049,0.047493l-0.1069946-0.0716248
			c-0.118988-0.3227425-0.1900482-0.5029793-0.4040222-0.9456482c-0.2970428-0.6342163-0.7601624-1.640213-1.0572052-2.2623482
			l-0.190033-0.4072227c-0.3086395,0.012085-0.3800812,0.012085-0.6886902,0.012085
			c0,0.8739891,0.0119629,2.3822327,0.0714417,3.5790024l-0.0594788,0.0603485c-0.5345764,0-0.641571,0-1.1877594,0.035408
			l-0.0594788-0.0716248v-0.3348274c0.0235901-0.7782364,0.0235901-1.5444221,0.0235901-2.3226585
			c0-0.4313583-0.0116119-4.2977028-0.095047-5.6988411L143.4414215,44.381031z M146.7555237,46.679554
			c0-1.3883171-0.926651-1.4124489-1.3897858-1.4124489c-0.2255402,0-0.4634705,0.0120468-0.6890564,0.0241318
			c-0.0116119,1.0052223-0.0116119,2.0112228,0,3.016449C145.7338715,48.3679962,146.7555237,48.2239761,146.7555237,46.679554z"/>
		<path fill="#161616" d="M156.623291,52.8451958c-0.546524-0.012085-0.7010193,0-1.2232666,0.0241318l-0.0714722-0.0723915
			c0.0119934-0.7782745,0.0235901-1.5444221,0.0235901-2.3219261c0-0.31147,0-2.8972969-0.0235901-4.1785507
			c-0.0235596-0.8378105-0.0355072-1.328743-0.0594482-1.8317223l0.0594482-0.0716591c0.5465546,0,0.6887207,0,1.2352753-0.0241318
			l0.0594635,0.0603485c-0.0119629,0.8973846-0.023941,1.7359695-0.023941,2.5858231
			c0,1.9275169,0.023941,3.8429871,0.0950317,5.758419L156.623291,52.8451958z"/>
		<path fill="#161616" d="M167.8213959,45.7339058c-0.1781006-0.1795006-0.5817413-0.5746422-1.3538666-0.5746422
			c-0.8196411,0-1.2707825,0.5271111-1.2707825,1.2209053c0,0.6349487,0.3325806,0.9456482,1.1282501,1.4848442
			c0.1660919,0.1199265,0.3561401,0.2269936,0.5226288,0.3469162c0.7481689,0.5029793,1.4607849,1.0655365,1.4607849,2.3347054
			c0,0.6824799-0.2255402,1.257122-0.5341797,1.6522598c-0.4990234,0.6100845-1.2236481,0.8016319-2.031311,0.8016319
			c-0.5226135,0-1.1757965-0.1078377-1.7223206-0.4185371l-0.0710907-0.1198845
			c0.023941-0.1795006,0.0355377-0.3476524,0.0475311-0.527153c0.0119476-0.1674118,0.0235596-0.3348274,0.0235596-0.4909325
			l0.1069946-0.0354424c0.5345764,0.5987701,1.1996918,0.670433,1.5322723,0.670433
			c0.9857178,0,1.4132996-0.7066116,1.4132996-1.4124527c0-0.7428284-0.4511414-1.1258812-1.1043091-1.5806389l-0.5345764-0.3468781
			c-0.7485504-0.5271111-1.4727936-1.0301285-1.4727936-2.2510338c0-0.5625534,0.2019958-2.2502594,2.3755035-2.2502594
			c0.9026642,0,1.4252777,0.2752533,1.6153259,0.371006l0.0355072,0.1078415
			c-0.0119476,0.1795006-0.0355072,0.3469162-0.0475006,0.5263786c-0.0119476,0.1440163-0.0119476,0.2993851-0.0239258,0.4434013
			L167.8213959,45.7339058z"/>
	</g>
</g>
</svg>
